# xmcd
#
# Track frame offsets: 
#        150
#        17492
#        30383
#        45972
#        53548
#        63191
#        76799
#        93989
#        104982
#        115761
#        124863
#        151839
#
# Disc length: 2250 seconds
#
# Revision: 0
# Processed by: cddbd v1.5.2PL0 Copyright (c) Steve Scherf et al.
# Submitted via: ExactAudioCopy v0.99pb5
#
DISCID=8208c80c
DTITLE=Area Code 615 - Trip in the Country
DYEAR=1970
DGENRE=Country
TTITLE0=Scotland
TTITLE1=Always The Same
TTITLE2=Stone Fox Chase
TTITLE3=Russian Red
TTITLE4=Judy
TTITLE5=Gray Suit Men
TTITLE6=Katy Hill
TTITLE7=Sligo
TTITLE8=Sausalito
TTITLE9=Welephant Walk
TTITLE10=Devil Weed and Me
TTITLE11=Just Like a Woman
EXTD=
EXTT0=
EXTT1=
EXTT2=
EXTT3=
EXTT4=
EXTT5=
EXTT6=
EXTT7=
EXTT8=
EXTT9=
EXTT10=
EXTT11=
PLAYORDER=
